<svg width="115" height="26" viewBox="0 0 115 26" fill="none" xmlns="http://www.w3.org/2000/svg">
<path d="M89.8809 13.0359C89.8809 19.6832 95.2695 25.0719 101.917 25.0719C108.564 25.0719 113.953 19.6832 113.953 13.0359C113.953 6.38867 108.564 1 101.917 1C95.2695 1 89.8809 6.38867 89.8809 13.0359Z" fill="#019F8E" stroke="#019F8E" stroke-width="0.185168"/>
<path d="M60.2539 13.0359C60.2539 19.6832 65.6426 25.0719 72.2898 25.0719C78.9371 25.0719 84.3258 19.6832 84.3258 13.0359C84.3258 6.38867 78.9371 1 72.2898 1C65.6426 1 60.2539 6.38867 60.2539 13.0359Z" fill="#00FFAB" stroke="#00FFAB" stroke-width="0.185168"/>
<path d="M30.627 13.0359C30.627 19.6832 36.0156 25.0719 42.6629 25.0719C49.3102 25.0719 54.6988 19.6832 54.6988 13.0359C54.6988 6.38867 49.3102 1 42.6629 1C36.0156 1 30.627 6.38867 30.627 13.0359Z" fill="#D3DEE2" stroke="#D3DEE2" stroke-width="0.185168"/>
<path d="M1 13.0359C1 19.6832 6.38867 25.0719 13.0359 25.0719C19.6832 25.0719 25.0719 19.6832 25.0719 13.0359C25.0719 6.38867 19.6832 1 13.0359 1C6.38867 1 1 6.38867 1 13.0359Z" fill="#F0F0F0" stroke="#F0F0F0" stroke-width="0.185168"/>
</svg>
